<?xml version="1.0" encoding="utf-8" standalone="no"?>
<!DOCTYPE svg PUBLIC "-//W3C//DTD SVG 1.1//EN"
  "http://www.w3.org/Graphics/SVG/1.1/DTD/svg11.dtd">
<svg xmlns:xlink="http://www.w3.org/1999/xlink" width="638.552187pt" height="314.520625pt" viewBox="0 0 638.552187 314.520625" xmlns="http://www.w3.org/2000/svg" version="1.1">
 <metadata>
  <rdf:RDF xmlns:dc="http://purl.org/dc/elements/1.1/" xmlns:cc="http://creativecommons.org/ns#" xmlns:rdf="http://www.w3.org/1999/02/22-rdf-syntax-ns#">
   <cc:Work>
    <dc:type rdf:resource="http://purl.org/dc/dcmitype/StillImage"/>
    <dc:date>2025-02-18T13:21:01.796266</dc:date>
    <dc:format>image/svg+xml</dc:format>
    <dc:creator>
     <cc:Agent>
      <dc:title>Matplotlib v3.10.0, https://matplotlib.org/</dc:title>
     </cc:Agent>
    </dc:creator>
   </cc:Work>
  </rdf:RDF>
 </metadata>
 <defs>
  <style type="text/css">*{stroke-linejoin: round; stroke-linecap: butt}</style>
 </defs>
 <g id="figure_1">
  <g id="patch_1">
   <path d="M 0 314.520625 
L 638.552187 314.520625 
L 638.552187 0 
L 0 0 
L 0 314.520625 
z
" style="fill: none"/>
  </g>
  <g id="axes_1">
   <g id="patch_2">
    <path d="M 57.289687 268.6575 
L 624.989687 268.6575 
L 624.989687 25.3575 
L 57.289687 25.3575 
L 57.289687 268.6575 
z
" style="fill: none"/>
   </g>
   <g id="FillBetweenPolyCollection_1">
    <defs>
     <path id="mc739b4ec81" d="M 187.049688 -182.592842 
L 187.049688 -182.592656 
L 191.104687 -183.412993 
L 195.159687 -188.137694 
L 199.214687 -189.113798 
L 203.269687 -190.242467 
L 207.324687 -194.085072 
L 211.379687 -190.4036 
L 215.434687 -190.751394 
L 219.489688 -189.341104 
L 223.544687 -188.886354 
L 227.599687 -185.229613 
L 231.654687 -182.546296 
L 235.709687 -175.323608 
L 239.764687 -166.354617 
L 243.819687 -156.762368 
L 247.874687 -147.471244 
L 251.929688 -140.904591 
L 255.984687 -132.677629 
L 260.039688 -126.664999 
L 264.094687 -125.715499 
L 268.149687 -123.915004 
L 272.204687 -124.285946 
L 276.259687 -124.891529 
L 280.314687 -125.548171 
L 284.369687 -126.179801 
L 288.424688 -126.770245 
L 292.479687 -127.369229 
L 296.534687 -127.843961 
L 300.589687 -128.517403 
L 304.644687 -129.307089 
L 308.699687 -130.235394 
L 312.754687 -131.051251 
L 316.809687 -131.720855 
L 320.864688 -131.88526 
L 324.919688 -131.540377 
L 328.974687 -130.823014 
L 333.029687 -130.063946 
L 337.084687 -129.304222 
L 341.139687 -128.978337 
L 345.194687 -129.304222 
L 349.249687 -130.063946 
L 353.304688 -130.823014 
L 357.359687 -131.540377 
L 361.414687 -131.88526 
L 365.469687 -131.720855 
L 369.524687 -131.051251 
L 373.579687 -130.235394 
L 377.634687 -129.307089 
L 381.689687 -128.517403 
L 385.744687 -127.843961 
L 389.799688 -127.369229 
L 393.854687 -126.770245 
L 397.909687 -126.179801 
L 401.964687 -125.548171 
L 406.019687 -124.891529 
L 410.074687 -124.285946 
L 414.129687 -123.915004 
L 418.184687 -125.715499 
L 422.239687 -126.664999 
L 426.294688 -132.677629 
L 430.349687 -140.904591 
L 434.404687 -147.471244 
L 438.459687 -156.762368 
L 442.514687 -166.354617 
L 446.569687 -175.323608 
L 450.624687 -182.546296 
L 454.679688 -185.229613 
L 458.734687 -188.886354 
L 462.789687 -189.341104 
L 466.844687 -190.751394 
L 470.899687 -190.4036 
L 474.954687 -194.085072 
L 479.009687 -190.242467 
L 483.064687 -189.113798 
L 487.119687 -188.137694 
L 491.174688 -183.412993 
L 495.229687 -182.592656 
L 495.229687 -182.592842 
L 495.229687 -182.592842 
L 491.174688 -183.413883 
L 487.119687 -188.139313 
L 483.064687 -189.116665 
L 479.009687 -190.258792 
L 474.954687 -194.097943 
L 470.899687 -190.426961 
L 466.844687 -190.802763 
L 462.789687 -189.428572 
L 458.734687 -189.122862 
L 454.679688 -185.740833 
L 450.624687 -183.539963 
L 446.569687 -177.375733 
L 442.514687 -170.989064 
L 438.459687 -165.433736 
L 434.404687 -161.764121 
L 430.349687 -163.08973 
L 426.294688 -164.733206 
L 422.239687 -168.417473 
L 418.184687 -172.102231 
L 414.129687 -175.001365 
L 410.074687 -178.147002 
L 406.019687 -180.740369 
L 401.964687 -182.548791 
L 397.909687 -184.386063 
L 393.854687 -186.205589 
L 389.799688 -187.684205 
L 385.744687 -189.40457 
L 381.689687 -190.576016 
L 377.634687 -192.145985 
L 373.579687 -193.805667 
L 369.524687 -195.464192 
L 365.469687 -196.674628 
L 361.414687 -197.162005 
L 357.359687 -197.313928 
L 353.304688 -197.043212 
L 349.249687 -196.566688 
L 345.194687 -196.189962 
L 341.139687 -195.854298 
L 337.084687 -196.189962 
L 333.029687 -196.566688 
L 328.974687 -197.043212 
L 324.919688 -197.313928 
L 320.864688 -197.162005 
L 316.809687 -196.674628 
L 312.754687 -195.464192 
L 308.699687 -193.805667 
L 304.644687 -192.145985 
L 300.589687 -190.576016 
L 296.534687 -189.40457 
L 292.479687 -187.684205 
L 288.424688 -186.205589 
L 284.369687 -184.386063 
L 280.314687 -182.548791 
L 276.259687 -180.740369 
L 272.204687 -178.147002 
L 268.149687 -175.001365 
L 264.094687 -172.102231 
L 260.039688 -168.417473 
L 255.984687 -164.733206 
L 251.929688 -163.08973 
L 247.874687 -161.764121 
L 243.819687 -165.433736 
L 239.764687 -170.989064 
L 235.709687 -177.375733 
L 231.654687 -183.539963 
L 227.599687 -185.740833 
L 223.544687 -189.122862 
L 219.489688 -189.428572 
L 215.434687 -190.802763 
L 211.379687 -190.426961 
L 207.324687 -194.097943 
L 203.269687 -190.258792 
L 199.214687 -189.116665 
L 195.159687 -188.139313 
L 191.104687 -183.413883 
L 187.049688 -182.592842 
z
" style="stroke: #7bd0dc; stroke-opacity: 0.5"/>
    </defs>
    <g clip-path="url(#p86c5763763)">
     <use xlink:href="#mc739b4ec81" x="0" y="314.520625" style="fill: #7bd0dc; fill-opacity: 0.5; stroke: #7bd0dc; stroke-opacity: 0.5"/>
    </g>
   </g>
   <g id="FillBetweenPolyCollection_2">
    <defs>
     <path id="maff12a846c" d="M 187.049688 -185.291922 
L 187.049688 -184.441387 
L 191.104687 -185.253737 
L 195.159687 -189.780995 
L 199.214687 -190.66419 
L 203.269687 -191.677285 
L 207.324687 -195.384108 
L 211.379687 -191.782814 
L 215.434687 -192.130533 
L 219.489688 -190.85007 
L 223.544687 -190.594773 
L 227.599687 -187.407235 
L 231.654687 -185.383979 
L 235.709687 -179.343885 
L 239.764687 -172.538038 
L 243.819687 -165.800618 
L 247.874687 -160.60863 
L 251.929688 -158.78824 
L 255.984687 -157.544225 
L 260.039688 -160.55811 
L 264.094687 -167.196169 
L 268.149687 -173.095648 
L 272.204687 -179.361514 
L 276.259687 -184.712354 
L 280.314687 -187.275866 
L 284.369687 -188.229302 
L 288.424688 -187.049316 
L 292.479687 -184.212869 
L 296.534687 -183.474427 
L 300.589687 -182.80492 
L 304.644687 -182.757409 
L 308.699687 -182.947081 
L 312.754687 -184.024288 
L 316.809687 -184.496111 
L 320.864688 -186.775675 
L 324.919688 -188.784706 
L 328.974687 -190.746247 
L 333.029687 -192.610273 
L 337.084687 -192.226558 
L 341.139687 -190.671681 
L 345.194687 -192.226558 
L 349.249687 -192.610273 
L 353.304688 -190.746247 
L 357.359687 -188.784706 
L 361.414687 -186.775675 
L 365.469687 -184.496111 
L 369.524687 -184.024288 
L 373.579687 -182.947081 
L 377.634687 -182.757409 
L 381.689687 -182.80492 
L 385.744687 -183.474427 
L 389.799688 -184.212869 
L 393.854687 -187.049316 
L 397.909687 -188.229302 
L 401.964687 -187.275866 
L 406.019687 -184.712354 
L 410.074687 -179.361514 
L 414.129687 -173.095648 
L 418.184687 -167.196169 
L 422.239687 -160.55811 
L 426.294688 -157.544225 
L 430.349687 -158.78824 
L 434.404687 -160.60863 
L 438.459687 -165.800618 
L 442.514687 -172.538038 
L 446.569687 -179.343885 
L 450.624687 -185.383979 
L 454.679688 -187.407235 
L 458.734687 -190.594773 
L 462.789687 -190.85007 
L 466.844687 -192.130533 
L 470.899687 -191.782814 
L 474.954687 -195.384108 
L 479.009687 -191.677285 
L 483.064687 -190.66419 
L 487.119687 -189.780995 
L 491.174688 -185.253737 
L 495.229687 -184.441387 
L 495.229687 -185.291922 
L 495.229687 -185.291922 
L 491.174688 -186.165672 
L 487.119687 -190.688919 
L 483.064687 -191.654331 
L 479.009687 -192.722962 
L 474.954687 -196.333984 
L 470.899687 -192.76635 
L 466.844687 -193.087988 
L 462.789687 -191.882738 
L 458.734687 -191.813218 
L 454.679688 -189.069175 
L 450.624687 -187.666857 
L 446.569687 -182.759015 
L 442.514687 -178.703584 
L 438.459687 -176.337582 
L 434.404687 -177.816172 
L 430.349687 -182.686372 
L 426.294688 -188.77047 
L 422.239687 -195.949116 
L 418.184687 -201.856773 
L 414.129687 -206.445641 
L 410.074687 -210.037692 
L 406.019687 -212.772826 
L 401.964687 -214.233812 
L 397.909687 -215.100016 
L 393.854687 -215.31483 
L 389.799688 -215.140923 
L 385.744687 -215.227656 
L 381.689687 -215.756138 
L 377.634687 -216.613316 
L 373.579687 -217.654107 
L 369.524687 -218.924031 
L 365.469687 -219.477916 
L 361.414687 -221.063271 
L 357.359687 -222.157476 
L 353.304688 -222.777983 
L 349.249687 -223.5895 
L 345.194687 -223.252582 
L 341.139687 -222.257263 
L 337.084687 -223.252582 
L 333.029687 -223.5895 
L 328.974687 -222.777983 
L 324.919688 -222.157476 
L 320.864688 -221.063271 
L 316.809687 -219.477916 
L 312.754687 -218.924031 
L 308.699687 -217.654107 
L 304.644687 -216.613316 
L 300.589687 -215.756138 
L 296.534687 -215.227656 
L 292.479687 -215.140923 
L 288.424688 -215.31483 
L 284.369687 -215.100016 
L 280.314687 -214.233812 
L 276.259687 -212.772826 
L 272.204687 -210.037692 
L 268.149687 -206.445641 
L 264.094687 -201.856773 
L 260.039688 -195.949116 
L 255.984687 -188.77047 
L 251.929688 -182.686372 
L 247.874687 -177.816172 
L 243.819687 -176.337582 
L 239.764687 -178.703584 
L 235.709687 -182.759015 
L 231.654687 -187.666857 
L 227.599687 -189.069175 
L 223.544687 -191.813218 
L 219.489688 -191.882738 
L 215.434687 -193.087988 
L 211.379687 -192.76635 
L 207.324687 -196.333984 
L 203.269687 -192.722962 
L 199.214687 -191.654331 
L 195.159687 -190.688919 
L 191.104687 -186.165672 
L 187.049688 -185.291922 
z
" style="stroke: #6bbf5c; stroke-opacity: 0.5"/>
    </defs>
    <g clip-path="url(#p86c5763763)">
     <use xlink:href="#maff12a846c" x="0" y="314.520625" style="fill: #6bbf5c; fill-opacity: 0.5; stroke: #6bbf5c; stroke-opacity: 0.5"/>
    </g>
   </g>
   <g id="matplotlib.axis_1">
    <g id="xtick_1">
     <g id="line2d_1">
      <defs>
       <path id="m85b633cb64" d="M 0 0 
L 0 6 
" style="stroke: #000000"/>
      </defs>
      <g>
       <use xlink:href="#m85b633cb64" x="57.289688" y="268.6575" style="stroke: #000000"/>
      </g>
     </g>
     <g id="text_1">
      <!-- −70 -->
      <g transform="translate(46.737344 285.755938) scale(0.1 -0.1)">
       <defs>
        <path id="DejaVuSans-2212" d="M 678 2272 
L 4684 2272 
L 4684 1741 
L 678 1741 
L 678 2272 
z
" transform="scale(0.015625)"/>
        <path id="DejaVuSans-37" d="M 525 4666 
L 3525 4666 
L 3525 4397 
L 1831 0 
L 1172 0 
L 2766 4134 
L 525 4134 
L 525 4666 
z
" transform="scale(0.015625)"/>
        <path id="DejaVuSans-30" d="M 2034 4250 
Q 1547 4250 1301 3770 
Q 1056 3291 1056 2328 
Q 1056 1369 1301 889 
Q 1547 409 2034 409 
Q 2525 409 2770 889 
Q 3016 1369 3016 2328 
Q 3016 3291 2770 3770 
Q 2525 4250 2034 4250 
z
M 2034 4750 
Q 2819 4750 3233 4129 
Q 3647 3509 3647 2328 
Q 3647 1150 3233 529 
Q 2819 -91 2034 -91 
Q 1250 -91 836 529 
Q 422 1150 422 2328 
Q 422 3509 836 4129 
Q 1250 4750 2034 4750 
z
" transform="scale(0.015625)"/>
       </defs>
       <use xlink:href="#DejaVuSans-2212"/>
       <use xlink:href="#DejaVuSans-37" transform="translate(83.789062 0)"/>
       <use xlink:href="#DejaVuSans-30" transform="translate(147.412109 0)"/>
      </g>
     </g>
    </g>
    <g id="xtick_2">
     <g id="line2d_2">
      <g>
       <use xlink:href="#m85b633cb64" x="97.839687" y="268.6575" style="stroke: #000000"/>
      </g>
     </g>
     <g id="text_2">
      <!-- −60 -->
      <g transform="translate(87.287344 285.755938) scale(0.1 -0.1)">
       <defs>
        <path id="DejaVuSans-36" d="M 2113 2584 
Q 1688 2584 1439 2293 
Q 1191 2003 1191 1497 
Q 1191 994 1439 701 
Q 1688 409 2113 409 
Q 2538 409 2786 701 
Q 3034 994 3034 1497 
Q 3034 2003 2786 2293 
Q 2538 2584 2113 2584 
z
M 3366 4563 
L 3366 3988 
Q 3128 4100 2886 4159 
Q 2644 4219 2406 4219 
Q 1781 4219 1451 3797 
Q 1122 3375 1075 2522 
Q 1259 2794 1537 2939 
Q 1816 3084 2150 3084 
Q 2853 3084 3261 2657 
Q 3669 2231 3669 1497 
Q 3669 778 3244 343 
Q 2819 -91 2113 -91 
Q 1303 -91 875 529 
Q 447 1150 447 2328 
Q 447 3434 972 4092 
Q 1497 4750 2381 4750 
Q 2619 4750 2861 4703 
Q 3103 4656 3366 4563 
z
" transform="scale(0.015625)"/>
       </defs>
       <use xlink:href="#DejaVuSans-2212"/>
       <use xlink:href="#DejaVuSans-36" transform="translate(83.789062 0)"/>
       <use xlink:href="#DejaVuSans-30" transform="translate(147.412109 0)"/>
      </g>
     </g>
    </g>
    <g id="xtick_3">
     <g id="line2d_3">
      <g>
       <use xlink:href="#m85b633cb64" x="138.389687" y="268.6575" style="stroke: #000000"/>
      </g>
     </g>
     <g id="text_3">
      <!-- −50 -->
      <g transform="translate(127.837344 285.755938) scale(0.1 -0.1)">
       <defs>
        <path id="DejaVuSans-35" d="M 691 4666 
L 3169 4666 
L 3169 4134 
L 1269 4134 
L 1269 2991 
Q 1406 3038 1543 3061 
Q 1681 3084 1819 3084 
Q 2600 3084 3056 2656 
Q 3513 2228 3513 1497 
Q 3513 744 3044 326 
Q 2575 -91 1722 -91 
Q 1428 -91 1123 -41 
Q 819 9 494 109 
L 494 744 
Q 775 591 1075 516 
Q 1375 441 1709 441 
Q 2250 441 2565 725 
Q 2881 1009 2881 1497 
Q 2881 1984 2565 2268 
Q 2250 2553 1709 2553 
Q 1456 2553 1204 2497 
Q 953 2441 691 2322 
L 691 4666 
z
" transform="scale(0.015625)"/>
       </defs>
       <use xlink:href="#DejaVuSans-2212"/>
       <use xlink:href="#DejaVuSans-35" transform="translate(83.789062 0)"/>
       <use xlink:href="#DejaVuSans-30" transform="translate(147.412109 0)"/>
      </g>
     </g>
    </g>
    <g id="xtick_4">
     <g id="line2d_4">
      <g>
       <use xlink:href="#m85b633cb64" x="178.939687" y="268.6575" style="stroke: #000000"/>
      </g>
     </g>
     <g id="text_4">
      <!-- −40 -->
      <g transform="translate(168.387344 285.755938) scale(0.1 -0.1)">
       <defs>
        <path id="DejaVuSans-34" d="M 2419 4116 
L 825 1625 
L 2419 1625 
L 2419 4116 
z
M 2253 4666 
L 3047 4666 
L 3047 1625 
L 3713 1625 
L 3713 1100 
L 3047 1100 
L 3047 0 
L 2419 0 
L 2419 1100 
L 313 1100 
L 313 1709 
L 2253 4666 
z
" transform="scale(0.015625)"/>
       </defs>
       <use xlink:href="#DejaVuSans-2212"/>
       <use xlink:href="#DejaVuSans-34" transform="translate(83.789062 0)"/>
       <use xlink:href="#DejaVuSans-30" transform="translate(147.412109 0)"/>
      </g>
     </g>
    </g>
    <g id="xtick_5">
     <g id="line2d_5">
      <g>
       <use xlink:href="#m85b633cb64" x="219.489688" y="268.6575" style="stroke: #000000"/>
      </g>
     </g>
     <g id="text_5">
      <!-- −30 -->
      <g transform="translate(208.937344 285.755938) scale(0.1 -0.1)">
       <defs>
        <path id="DejaVuSans-33" d="M 2597 2516 
Q 3050 2419 3304 2112 
Q 3559 1806 3559 1356 
Q 3559 666 3084 287 
Q 2609 -91 1734 -91 
Q 1441 -91 1130 -33 
Q 819 25 488 141 
L 488 750 
Q 750 597 1062 519 
Q 1375 441 1716 441 
Q 2309 441 2620 675 
Q 2931 909 2931 1356 
Q 2931 1769 2642 2001 
Q 2353 2234 1838 2234 
L 1294 2234 
L 1294 2753 
L 1863 2753 
Q 2328 2753 2575 2939 
Q 2822 3125 2822 3475 
Q 2822 3834 2567 4026 
Q 2313 4219 1838 4219 
Q 1578 4219 1281 4162 
Q 984 4106 628 3988 
L 628 4550 
Q 988 4650 1302 4700 
Q 1616 4750 1894 4750 
Q 2613 4750 3031 4423 
Q 3450 4097 3450 3541 
Q 3450 3153 3228 2886 
Q 3006 2619 2597 2516 
z
" transform="scale(0.015625)"/>
       </defs>
       <use xlink:href="#DejaVuSans-2212"/>
       <use xlink:href="#DejaVuSans-33" transform="translate(83.789062 0)"/>
       <use xlink:href="#DejaVuSans-30" transform="translate(147.412109 0)"/>
      </g>
     </g>
    </g>
    <g id="xtick_6">
     <g id="line2d_6">
      <g>
       <use xlink:href="#m85b633cb64" x="260.039688" y="268.6575" style="stroke: #000000"/>
      </g>
     </g>
     <g id="text_6">
      <!-- −20 -->
      <g transform="translate(249.487344 285.755938) scale(0.1 -0.1)">
       <defs>
        <path id="DejaVuSans-32" d="M 1228 531 
L 3431 531 
L 3431 0 
L 469 0 
L 469 531 
Q 828 903 1448 1529 
Q 2069 2156 2228 2338 
Q 2531 2678 2651 2914 
Q 2772 3150 2772 3378 
Q 2772 3750 2511 3984 
Q 2250 4219 1831 4219 
Q 1534 4219 1204 4116 
Q 875 4013 500 3803 
L 500 4441 
Q 881 4594 1212 4672 
Q 1544 4750 1819 4750 
Q 2544 4750 2975 4387 
Q 3406 4025 3406 3419 
Q 3406 3131 3298 2873 
Q 3191 2616 2906 2266 
Q 2828 2175 2409 1742 
Q 1991 1309 1228 531 
z
" transform="scale(0.015625)"/>
       </defs>
       <use xlink:href="#DejaVuSans-2212"/>
       <use xlink:href="#DejaVuSans-32" transform="translate(83.789062 0)"/>
       <use xlink:href="#DejaVuSans-30" transform="translate(147.412109 0)"/>
      </g>
     </g>
    </g>
    <g id="xtick_7">
     <g id="line2d_7">
      <g>
       <use xlink:href="#m85b633cb64" x="300.589687" y="268.6575" style="stroke: #000000"/>
      </g>
     </g>
     <g id="text_7">
      <!-- −10 -->
      <g transform="translate(290.037344 285.755938) scale(0.1 -0.1)">
       <defs>
        <path id="DejaVuSans-31" d="M 794 531 
L 1825 531 
L 1825 4091 
L 703 3866 
L 703 4441 
L 1819 4666 
L 2450 4666 
L 2450 531 
L 3481 531 
L 3481 0 
L 794 0 
L 794 531 
z
" transform="scale(0.015625)"/>
       </defs>
       <use xlink:href="#DejaVuSans-2212"/>
       <use xlink:href="#DejaVuSans-31" transform="translate(83.789062 0)"/>
       <use xlink:href="#DejaVuSans-30" transform="translate(147.412109 0)"/>
      </g>
     </g>
    </g>
    <g id="xtick_8">
     <g id="line2d_8">
      <g>
       <use xlink:href="#m85b633cb64" x="341.139687" y="268.6575" style="stroke: #000000"/>
      </g>
     </g>
     <g id="text_8">
      <!-- 0 -->
      <g transform="translate(337.958438 285.755938) scale(0.1 -0.1)">
       <use xlink:href="#DejaVuSans-30"/>
      </g>
     </g>
    </g>
    <g id="xtick_9">
     <g id="line2d_9">
      <g>
       <use xlink:href="#m85b633cb64" x="381.689687" y="268.6575" style="stroke: #000000"/>
      </g>
     </g>
     <g id="text_9">
      <!-- 10 -->
      <g transform="translate(375.327187 285.755938) scale(0.1 -0.1)">
       <use xlink:href="#DejaVuSans-31"/>
       <use xlink:href="#DejaVuSans-30" transform="translate(63.623047 0)"/>
      </g>
     </g>
    </g>
    <g id="xtick_10">
     <g id="line2d_10">
      <g>
       <use xlink:href="#m85b633cb64" x="422.239687" y="268.6575" style="stroke: #000000"/>
      </g>
     </g>
     <g id="text_10">
      <!-- 20 -->
      <g transform="translate(415.877187 285.755938) scale(0.1 -0.1)">
       <use xlink:href="#DejaVuSans-32"/>
       <use xlink:href="#DejaVuSans-30" transform="translate(63.623047 0)"/>
      </g>
     </g>
    </g>
    <g id="xtick_11">
     <g id="line2d_11">
      <g>
       <use xlink:href="#m85b633cb64" x="462.789687" y="268.6575" style="stroke: #000000"/>
      </g>
     </g>
     <g id="text_11">
      <!-- 30 -->
      <g transform="translate(456.427187 285.755938) scale(0.1 -0.1)">
       <use xlink:href="#DejaVuSans-33"/>
       <use xlink:href="#DejaVuSans-30" transform="translate(63.623047 0)"/>
      </g>
     </g>
    </g>
    <g id="xtick_12">
     <g id="line2d_12">
      <g>
       <use xlink:href="#m85b633cb64" x="503.339687" y="268.6575" style="stroke: #000000"/>
      </g>
     </g>
     <g id="text_12">
      <!-- 40 -->
      <g transform="translate(496.977187 285.755938) scale(0.1 -0.1)">
       <use xlink:href="#DejaVuSans-34"/>
       <use xlink:href="#DejaVuSans-30" transform="translate(63.623047 0)"/>
      </g>
     </g>
    </g>
    <g id="xtick_13">
     <g id="line2d_13">
      <g>
       <use xlink:href="#m85b633cb64" x="543.889688" y="268.6575" style="stroke: #000000"/>
      </g>
     </g>
     <g id="text_13">
      <!-- 50 -->
      <g transform="translate(537.527188 285.755938) scale(0.1 -0.1)">
       <use xlink:href="#DejaVuSans-35"/>
       <use xlink:href="#DejaVuSans-30" transform="translate(63.623047 0)"/>
      </g>
     </g>
    </g>
    <g id="xtick_14">
     <g id="line2d_14">
      <g>
       <use xlink:href="#m85b633cb64" x="584.439687" y="268.6575" style="stroke: #000000"/>
      </g>
     </g>
     <g id="text_14">
      <!-- 60 -->
      <g transform="translate(578.077188 285.755938) scale(0.1 -0.1)">
       <use xlink:href="#DejaVuSans-36"/>
       <use xlink:href="#DejaVuSans-30" transform="translate(63.623047 0)"/>
      </g>
     </g>
    </g>
    <g id="xtick_15">
     <g id="line2d_15">
      <g>
       <use xlink:href="#m85b633cb64" x="624.989687" y="268.6575" style="stroke: #000000"/>
      </g>
     </g>
     <g id="text_15">
      <!-- 70 -->
      <g transform="translate(618.627187 285.755938) scale(0.1 -0.1)">
       <use xlink:href="#DejaVuSans-37"/>
       <use xlink:href="#DejaVuSans-30" transform="translate(63.623047 0)"/>
      </g>
     </g>
    </g>
    <g id="text_16">
     <!-- Distance from center (nm) -->
     <g transform="translate(235.075937 303.993125) scale(0.16 -0.16)">
      <defs>
       <path id="DejaVuSans-44" d="M 1259 4147 
L 1259 519 
L 2022 519 
Q 2988 519 3436 956 
Q 3884 1394 3884 2338 
Q 3884 3275 3436 3711 
Q 2988 4147 2022 4147 
L 1259 4147 
z
M 628 4666 
L 1925 4666 
Q 3281 4666 3915 4102 
Q 4550 3538 4550 2338 
Q 4550 1131 3912 565 
Q 3275 0 1925 0 
L 628 0 
L 628 4666 
z
" transform="scale(0.015625)"/>
       <path id="DejaVuSans-69" d="M 603 3500 
L 1178 3500 
L 1178 0 
L 603 0 
L 603 3500 
z
M 603 4863 
L 1178 4863 
L 1178 4134 
L 603 4134 
L 603 4863 
z
" transform="scale(0.015625)"/>
       <path id="DejaVuSans-73" d="M 2834 3397 
L 2834 2853 
Q 2591 2978 2328 3040 
Q 2066 3103 1784 3103 
Q 1356 3103 1142 2972 
Q 928 2841 928 2578 
Q 928 2378 1081 2264 
Q 1234 2150 1697 2047 
L 1894 2003 
Q 2506 1872 2764 1633 
Q 3022 1394 3022 966 
Q 3022 478 2636 193 
Q 2250 -91 1575 -91 
Q 1294 -91 989 -36 
Q 684 19 347 128 
L 347 722 
Q 666 556 975 473 
Q 1284 391 1588 391 
Q 1994 391 2212 530 
Q 2431 669 2431 922 
Q 2431 1156 2273 1281 
Q 2116 1406 1581 1522 
L 1381 1569 
Q 847 1681 609 1914 
Q 372 2147 372 2553 
Q 372 3047 722 3315 
Q 1072 3584 1716 3584 
Q 2034 3584 2315 3537 
Q 2597 3491 2834 3397 
z
" transform="scale(0.015625)"/>
       <path id="DejaVuSans-74" d="M 1172 4494 
L 1172 3500 
L 2356 3500 
L 2356 3053 
L 1172 3053 
L 1172 1153 
Q 1172 725 1289 603 
Q 1406 481 1766 481 
L 2356 481 
L 2356 0 
L 1766 0 
Q 1100 0 847 248 
Q 594 497 594 1153 
L 594 3053 
L 172 3053 
L 172 3500 
L 594 3500 
L 594 4494 
L 1172 4494 
z
" transform="scale(0.015625)"/>
       <path id="DejaVuSans-61" d="M 2194 1759 
Q 1497 1759 1228 1600 
Q 959 1441 959 1056 
Q 959 750 1161 570 
Q 1363 391 1709 391 
Q 2188 391 2477 730 
Q 2766 1069 2766 1631 
L 2766 1759 
L 2194 1759 
z
M 3341 1997 
L 3341 0 
L 2766 0 
L 2766 531 
Q 2569 213 2275 61 
Q 1981 -91 1556 -91 
Q 1019 -91 701 211 
Q 384 513 384 1019 
Q 384 1609 779 1909 
Q 1175 2209 1959 2209 
L 2766 2209 
L 2766 2266 
Q 2766 2663 2505 2880 
Q 2244 3097 1772 3097 
Q 1472 3097 1187 3025 
Q 903 2953 641 2809 
L 641 3341 
Q 956 3463 1253 3523 
Q 1550 3584 1831 3584 
Q 2591 3584 2966 3190 
Q 3341 2797 3341 1997 
z
" transform="scale(0.015625)"/>
       <path id="DejaVuSans-6e" d="M 3513 2113 
L 3513 0 
L 2938 0 
L 2938 2094 
Q 2938 2591 2744 2837 
Q 2550 3084 2163 3084 
Q 1697 3084 1428 2787 
Q 1159 2491 1159 1978 
L 1159 0 
L 581 0 
L 581 3500 
L 1159 3500 
L 1159 2956 
Q 1366 3272 1645 3428 
Q 1925 3584 2291 3584 
Q 2894 3584 3203 3211 
Q 3513 2838 3513 2113 
z
" transform="scale(0.015625)"/>
       <path id="DejaVuSans-63" d="M 3122 3366 
L 3122 2828 
Q 2878 2963 2633 3030 
Q 2388 3097 2138 3097 
Q 1578 3097 1268 2742 
Q 959 2388 959 1747 
Q 959 1106 1268 751 
Q 1578 397 2138 397 
Q 2388 397 2633 464 
Q 2878 531 3122 666 
L 3122 134 
Q 2881 22 2623 -34 
Q 2366 -91 2075 -91 
Q 1284 -91 818 406 
Q 353 903 353 1747 
Q 353 2603 823 3093 
Q 1294 3584 2113 3584 
Q 2378 3584 2631 3529 
Q 2884 3475 3122 3366 
z
" transform="scale(0.015625)"/>
       <path id="DejaVuSans-65" d="M 3597 1894 
L 3597 1613 
L 953 1613 
Q 991 1019 1311 708 
Q 1631 397 2203 397 
Q 2534 397 2845 478 
Q 3156 559 3463 722 
L 3463 178 
Q 3153 47 2828 -22 
Q 2503 -91 2169 -91 
Q 1331 -91 842 396 
Q 353 884 353 1716 
Q 353 2575 817 3079 
Q 1281 3584 2069 3584 
Q 2775 3584 3186 3129 
Q 3597 2675 3597 1894 
z
M 3022 2063 
Q 3016 2534 2758 2815 
Q 2500 3097 2075 3097 
Q 1594 3097 1305 2825 
Q 1016 2553 972 2059 
L 3022 2063 
z
" transform="scale(0.015625)"/>
       <path id="DejaVuSans-20" transform="scale(0.015625)"/>
       <path id="DejaVuSans-66" d="M 2375 4863 
L 2375 4384 
L 1825 4384 
Q 1516 4384 1395 4259 
Q 1275 4134 1275 3809 
L 1275 3500 
L 2222 3500 
L 2222 3053 
L 1275 3053 
L 1275 0 
L 697 0 
L 697 3053 
L 147 3053 
L 147 3500 
L 697 3500 
L 697 3744 
Q 697 4328 969 4595 
Q 1241 4863 1831 4863 
L 2375 4863 
z
" transform="scale(0.015625)"/>
       <path id="DejaVuSans-72" d="M 2631 2963 
Q 2534 3019 2420 3045 
Q 2306 3072 2169 3072 
Q 1681 3072 1420 2755 
Q 1159 2438 1159 1844 
L 1159 0 
L 581 0 
L 581 3500 
L 1159 3500 
L 1159 2956 
Q 1341 3275 1631 3429 
Q 1922 3584 2338 3584 
Q 2397 3584 2469 3576 
Q 2541 3569 2628 3553 
L 2631 2963 
z
" transform="scale(0.015625)"/>
       <path id="DejaVuSans-6f" d="M 1959 3097 
Q 1497 3097 1228 2736 
Q 959 2375 959 1747 
Q 959 1119 1226 758 
Q 1494 397 1959 397 
Q 2419 397 2687 759 
Q 2956 1122 2956 1747 
Q 2956 2369 2687 2733 
Q 2419 3097 1959 3097 
z
M 1959 3584 
Q 2709 3584 3137 3096 
Q 3566 2609 3566 1747 
Q 3566 888 3137 398 
Q 2709 -91 1959 -91 
Q 1206 -91 779 398 
Q 353 888 353 1747 
Q 353 2609 779 3096 
Q 1206 3584 1959 3584 
z
" transform="scale(0.015625)"/>
       <path id="DejaVuSans-6d" d="M 3328 2828 
Q 3544 3216 3844 3400 
Q 4144 3584 4550 3584 
Q 5097 3584 5394 3201 
Q 5691 2819 5691 2113 
L 5691 0 
L 5113 0 
L 5113 2094 
Q 5113 2597 4934 2840 
Q 4756 3084 4391 3084 
Q 3944 3084 3684 2787 
Q 3425 2491 3425 1978 
L 3425 0 
L 2847 0 
L 2847 2094 
Q 2847 2600 2669 2842 
Q 2491 3084 2119 3084 
Q 1678 3084 1418 2786 
Q 1159 2488 1159 1978 
L 1159 0 
L 581 0 
L 581 3500 
L 1159 3500 
L 1159 2956 
Q 1356 3278 1631 3431 
Q 1906 3584 2284 3584 
Q 2666 3584 2933 3390 
Q 3200 3197 3328 2828 
z
" transform="scale(0.015625)"/>
       <path id="DejaVuSans-28" d="M 1984 4856 
Q 1566 4138 1362 3434 
Q 1159 2731 1159 2009 
Q 1159 1288 1364 580 
Q 1569 -128 1984 -844 
L 1484 -844 
Q 1016 -109 783 600 
Q 550 1309 550 2009 
Q 550 2706 781 3412 
Q 1013 4119 1484 4856 
L 1984 4856 
z
" transform="scale(0.015625)"/>
       <path id="DejaVuSans-29" d="M 513 4856 
L 1013 4856 
Q 1481 4119 1714 3412 
Q 1947 2706 1947 2009 
Q 1947 1309 1714 600 
Q 1481 -109 1013 -844 
L 513 -844 
Q 928 -128 1133 580 
Q 1338 1288 1338 2009 
Q 1338 2731 1133 3434 
Q 928 4138 513 4856 
z
" transform="scale(0.015625)"/>
      </defs>
      <use xlink:href="#DejaVuSans-44"/>
      <use xlink:href="#DejaVuSans-69" transform="translate(77.001953 0)"/>
      <use xlink:href="#DejaVuSans-73" transform="translate(104.785156 0)"/>
      <use xlink:href="#DejaVuSans-74" transform="translate(156.884766 0)"/>
      <use xlink:href="#DejaVuSans-61" transform="translate(196.09375 0)"/>
      <use xlink:href="#DejaVuSans-6e" transform="translate(257.373047 0)"/>
      <use xlink:href="#DejaVuSans-63" transform="translate(320.751953 0)"/>
      <use xlink:href="#DejaVuSans-65" transform="translate(375.732422 0)"/>
      <use xlink:href="#DejaVuSans-20" transform="translate(437.255859 0)"/>
      <use xlink:href="#DejaVuSans-66" transform="translate(469.042969 0)"/>
      <use xlink:href="#DejaVuSans-72" transform="translate(504.248047 0)"/>
      <use xlink:href="#DejaVuSans-6f" transform="translate(543.111328 0)"/>
      <use xlink:href="#DejaVuSans-6d" transform="translate(604.292969 0)"/>
      <use xlink:href="#DejaVuSans-20" transform="translate(701.705078 0)"/>
      <use xlink:href="#DejaVuSans-63" transform="translate(733.492188 0)"/>
      <use xlink:href="#DejaVuSans-65" transform="translate(788.472656 0)"/>
      <use xlink:href="#DejaVuSans-6e" transform="translate(849.996094 0)"/>
      <use xlink:href="#DejaVuSans-74" transform="translate(913.375 0)"/>
      <use xlink:href="#DejaVuSans-65" transform="translate(952.583984 0)"/>
      <use xlink:href="#DejaVuSans-72" transform="translate(1014.107422 0)"/>
      <use xlink:href="#DejaVuSans-20" transform="translate(1055.220703 0)"/>
      <use xlink:href="#DejaVuSans-28" transform="translate(1087.007812 0)"/>
      <use xlink:href="#DejaVuSans-6e" transform="translate(1126.021484 0)"/>
      <use xlink:href="#DejaVuSans-6d" transform="translate(1189.400391 0)"/>
      <use xlink:href="#DejaVuSans-29" transform="translate(1286.8125 0)"/>
     </g>
    </g>
   </g>
   <g id="matplotlib.axis_2">
    <g id="ytick_1">
     <g id="line2d_16">
      <defs>
       <path id="m62ae8d6ec4" d="M 0 0 
L -6 0 
" style="stroke: #000000"/>
      </defs>
      <g>
       <use xlink:href="#m62ae8d6ec4" x="57.289687" y="268.6575" style="stroke: #000000"/>
      </g>
     </g>
     <g id="text_17">
      <!-- −40 -->
      <g transform="translate(26.685 272.456719) scale(0.1 -0.1)">
       <use xlink:href="#DejaVuSans-2212"/>
       <use xlink:href="#DejaVuSans-34" transform="translate(83.789062 0)"/>
       <use xlink:href="#DejaVuSans-30" transform="translate(147.412109 0)"/>
      </g>
     </g>
    </g>
    <g id="ytick_2">
     <g id="line2d_17">
      <g>
       <use xlink:href="#m62ae8d6ec4" x="57.289687" y="228.1075" style="stroke: #000000"/>
      </g>
     </g>
     <g id="text_18">
      <!-- −30 -->
      <g transform="translate(26.685 231.906719) scale(0.1 -0.1)">
       <use xlink:href="#DejaVuSans-2212"/>
       <use xlink:href="#DejaVuSans-33" transform="translate(83.789062 0)"/>
       <use xlink:href="#DejaVuSans-30" transform="translate(147.412109 0)"/>
      </g>
     </g>
    </g>
    <g id="ytick_3">
     <g id="line2d_18">
      <g>
       <use xlink:href="#m62ae8d6ec4" x="57.289687" y="187.5575" style="stroke: #000000"/>
      </g>
     </g>
     <g id="text_19">
      <!-- −20 -->
      <g transform="translate(26.685 191.356719) scale(0.1 -0.1)">
       <use xlink:href="#DejaVuSans-2212"/>
       <use xlink:href="#DejaVuSans-32" transform="translate(83.789062 0)"/>
       <use xlink:href="#DejaVuSans-30" transform="translate(147.412109 0)"/>
      </g>
     </g>
    </g>
    <g id="ytick_4">
     <g id="line2d_19">
      <g>
       <use xlink:href="#m62ae8d6ec4" x="57.289687" y="147.0075" style="stroke: #000000"/>
      </g>
     </g>
     <g id="text_20">
      <!-- −10 -->
      <g transform="translate(26.685 150.806719) scale(0.1 -0.1)">
       <use xlink:href="#DejaVuSans-2212"/>
       <use xlink:href="#DejaVuSans-31" transform="translate(83.789062 0)"/>
       <use xlink:href="#DejaVuSans-30" transform="translate(147.412109 0)"/>
      </g>
     </g>
    </g>
    <g id="ytick_5">
     <g id="line2d_20">
      <g>
       <use xlink:href="#m62ae8d6ec4" x="57.289687" y="106.4575" style="stroke: #000000"/>
      </g>
     </g>
     <g id="text_21">
      <!-- 0 -->
      <g transform="translate(41.427188 110.256719) scale(0.1 -0.1)">
       <use xlink:href="#DejaVuSans-30"/>
      </g>
     </g>
    </g>
    <g id="ytick_6">
     <g id="line2d_21">
      <g>
       <use xlink:href="#m62ae8d6ec4" x="57.289687" y="65.9075" style="stroke: #000000"/>
      </g>
     </g>
     <g id="text_22">
      <!-- 10 -->
      <g transform="translate(35.064687 69.706719) scale(0.1 -0.1)">
       <use xlink:href="#DejaVuSans-31"/>
       <use xlink:href="#DejaVuSans-30" transform="translate(63.623047 0)"/>
      </g>
     </g>
    </g>
    <g id="ytick_7">
     <g id="line2d_22">
      <g>
       <use xlink:href="#m62ae8d6ec4" x="57.289687" y="25.3575" style="stroke: #000000"/>
      </g>
     </g>
     <g id="text_23">
      <!-- 20 -->
      <g transform="translate(35.064687 29.156719) scale(0.1 -0.1)">
       <use xlink:href="#DejaVuSans-32"/>
       <use xlink:href="#DejaVuSans-30" transform="translate(63.623047 0)"/>
      </g>
     </g>
    </g>
    <g id="text_24">
     <!-- Height (nm) -->
     <g transform="translate(19.3575 195.10125) rotate(-90) scale(0.16 -0.16)">
      <defs>
       <path id="DejaVuSans-48" d="M 628 4666 
L 1259 4666 
L 1259 2753 
L 3553 2753 
L 3553 4666 
L 4184 4666 
L 4184 0 
L 3553 0 
L 3553 2222 
L 1259 2222 
L 1259 0 
L 628 0 
L 628 4666 
z
" transform="scale(0.015625)"/>
       <path id="DejaVuSans-67" d="M 2906 1791 
Q 2906 2416 2648 2759 
Q 2391 3103 1925 3103 
Q 1463 3103 1205 2759 
Q 947 2416 947 1791 
Q 947 1169 1205 825 
Q 1463 481 1925 481 
Q 2391 481 2648 825 
Q 2906 1169 2906 1791 
z
M 3481 434 
Q 3481 -459 3084 -895 
Q 2688 -1331 1869 -1331 
Q 1566 -1331 1297 -1286 
Q 1028 -1241 775 -1147 
L 775 -588 
Q 1028 -725 1275 -790 
Q 1522 -856 1778 -856 
Q 2344 -856 2625 -561 
Q 2906 -266 2906 331 
L 2906 616 
Q 2728 306 2450 153 
Q 2172 0 1784 0 
Q 1141 0 747 490 
Q 353 981 353 1791 
Q 353 2603 747 3093 
Q 1141 3584 1784 3584 
Q 2172 3584 2450 3431 
Q 2728 3278 2906 2969 
L 2906 3500 
L 3481 3500 
L 3481 434 
z
" transform="scale(0.015625)"/>
       <path id="DejaVuSans-68" d="M 3513 2113 
L 3513 0 
L 2938 0 
L 2938 2094 
Q 2938 2591 2744 2837 
Q 2550 3084 2163 3084 
Q 1697 3084 1428 2787 
Q 1159 2491 1159 1978 
L 1159 0 
L 581 0 
L 581 4863 
L 1159 4863 
L 1159 2956 
Q 1366 3272 1645 3428 
Q 1925 3584 2291 3584 
Q 2894 3584 3203 3211 
Q 3513 2838 3513 2113 
z
" transform="scale(0.015625)"/>
      </defs>
      <use xlink:href="#DejaVuSans-48"/>
      <use xlink:href="#DejaVuSans-65" transform="translate(75.195312 0)"/>
      <use xlink:href="#DejaVuSans-69" transform="translate(136.71875 0)"/>
      <use xlink:href="#DejaVuSans-67" transform="translate(164.501953 0)"/>
      <use xlink:href="#DejaVuSans-68" transform="translate(227.978516 0)"/>
      <use xlink:href="#DejaVuSans-74" transform="translate(291.357422 0)"/>
      <use xlink:href="#DejaVuSans-20" transform="translate(330.566406 0)"/>
      <use xlink:href="#DejaVuSans-28" transform="translate(362.353516 0)"/>
      <use xlink:href="#DejaVuSans-6e" transform="translate(401.367188 0)"/>
      <use xlink:href="#DejaVuSans-6d" transform="translate(464.746094 0)"/>
      <use xlink:href="#DejaVuSans-29" transform="translate(562.158203 0)"/>
     </g>
    </g>
   </g>
   <g id="line2d_23">
    <path d="M 187.049688 131.927969 
L 191.104687 131.107632 
L 195.159687 126.382931 
L 199.214687 125.406827 
L 203.269687 124.278158 
L 207.324687 120.435553 
L 211.379687 124.117013 
L 215.434687 123.769164 
L 219.489688 125.179081 
L 223.544687 125.632259 
L 227.599687 129.287301 
L 231.654687 131.968408 
L 235.709687 139.170675 
L 239.764687 148.036629 
L 243.819687 157.385158 
L 247.874687 166.087735 
L 251.929688 171.021274 
L 255.984687 176.159198 
L 260.039688 177.825573 
L 264.094687 175.617583 
L 268.149687 174.056698 
L 272.204687 171.071909 
L 276.259687 168.323326 
L 280.314687 166.192902 
L 284.369687 164.152074 
L 288.424688 162.12099 
L 292.479687 160.11455 
L 296.534687 158.315696 
L 300.589687 156.695782 
L 304.644687 154.815737 
L 308.699687 152.598997 
L 312.754687 150.376964 
L 316.809687 148.715936 
L 320.864688 148.047863 
L 324.919688 148.149641 
L 328.974687 148.910831 
L 333.029687 150.026427 
L 337.084687 151.266684 
L 341.139687 151.950094 
L 345.194687 151.266684 
L 349.249687 150.026427 
L 353.304688 148.910831 
L 357.359687 148.149641 
L 361.414687 148.047863 
L 365.469687 148.715936 
L 369.524687 150.376964 
L 373.579687 152.598997 
L 377.634687 154.815737 
L 381.689687 156.695782 
L 385.744687 158.315696 
L 389.799688 160.11455 
L 393.854687 162.12099 
L 397.909687 164.152074 
L 401.964687 166.192902 
L 406.019687 168.323326 
L 410.074687 171.071909 
L 414.129687 174.056698 
L 418.184687 175.617583 
L 422.239687 177.825573 
L 426.294688 176.159198 
L 430.349687 171.021274 
L 434.404687 166.087735 
L 438.459687 157.385158 
L 442.514687 148.036629 
L 446.569687 139.170675 
L 450.624687 131.968408 
L 454.679688 129.287301 
L 458.734687 125.632259 
L 462.789687 125.179081 
L 466.844687 123.769164 
L 470.899687 124.117013 
L 474.954687 120.435553 
L 479.009687 124.278158 
L 483.064687 125.406827 
L 487.119687 126.382931 
L 491.174688 131.107632 
L 495.229687 131.927969 
" clip-path="url(#p86c5763763)" style="fill: none; stroke-dasharray: 12.21,5.28; stroke-dashoffset: 0; stroke: #7bd0dc; stroke-width: 3.3"/>
   </g>
   <g id="line2d_24">
    <path d="M 187.049688 129.671148 
L 191.104687 128.829901 
L 195.159687 124.30986 
L 199.214687 123.413835 
L 203.269687 122.376765 
L 207.324687 118.698051 
L 211.379687 122.278189 
L 215.434687 121.956003 
L 219.489688 123.229953 
L 223.544687 123.489345 
L 227.599687 126.656125 
L 231.654687 128.627803 
L 235.709687 134.530258 
L 239.764687 141.036113 
L 243.819687 147.20163 
L 247.874687 151.174188 
L 251.929688 150.91772 
L 255.984687 148.402774 
L 260.039688 141.61434 
L 264.094687 133.732119 
L 268.149687 126.965608 
L 272.204687 121.197471 
L 276.259687 116.799457 
L 280.314687 114.821488 
L 284.369687 113.99044 
L 288.424688 114.709723 
L 292.479687 116.44837 
L 296.534687 116.799305 
L 300.589687 117.038345 
L 304.644687 116.655254 
L 308.699687 116.107296 
L 312.754687 114.872564 
L 316.809687 114.692324 
L 320.864688 112.916828 
L 324.919688 111.501111 
L 328.974687 110.003884 
L 333.029687 108.23233 
L 337.084687 108.684268 
L 341.139687 109.767035 
L 345.194687 108.684268 
L 349.249687 108.23233 
L 353.304688 110.003884 
L 357.359687 111.501111 
L 361.414687 112.916828 
L 365.469687 114.692324 
L 369.524687 114.872564 
L 373.579687 116.107296 
L 377.634687 116.655254 
L 381.689687 117.038345 
L 385.744687 116.799305 
L 389.799688 116.44837 
L 393.854687 114.709723 
L 397.909687 113.99044 
L 401.964687 114.821488 
L 406.019687 116.799457 
L 410.074687 121.197471 
L 414.129687 126.965608 
L 418.184687 133.732119 
L 422.239687 141.61434 
L 426.294688 148.402774 
L 430.349687 150.91772 
L 434.404687 151.174188 
L 438.459687 147.20163 
L 442.514687 141.036113 
L 446.569687 134.530258 
L 450.624687 128.627803 
L 454.679688 126.656125 
L 458.734687 123.489345 
L 462.789687 123.229953 
L 466.844687 121.956003 
L 470.899687 122.278189 
L 474.954687 118.698051 
L 479.009687 122.376765 
L 483.064687 123.413835 
L 487.119687 124.30986 
L 491.174688 128.829901 
L 495.229687 129.671148 
" clip-path="url(#p86c5763763)" style="fill: none; stroke-dasharray: 12.21,5.28; stroke-dashoffset: 0; stroke: #6bbf5c; stroke-width: 3.3"/>
   </g>
   <g id="patch_3">
    <path d="M 57.289687 268.6575 
L 57.289687 25.3575 
" style="fill: none; stroke: #000000; stroke-linejoin: miter; stroke-linecap: square"/>
   </g>
   <g id="patch_4">
    <path d="M 624.989687 268.6575 
L 624.989687 25.3575 
" style="fill: none; stroke: #000000; stroke-linejoin: miter; stroke-linecap: square"/>
   </g>
   <g id="patch_5">
    <path d="M 57.289688 268.6575 
L 624.989687 268.6575 
" style="fill: none; stroke: #000000; stroke-linejoin: miter; stroke-linecap: square"/>
   </g>
   <g id="patch_6">
    <path d="M 57.289688 25.3575 
L 624.989687 25.3575 
" style="fill: none; stroke: #000000; stroke-linejoin: miter; stroke-linecap: square"/>
   </g>
   <g id="text_25">
    <!-- Mean height over distance -->
    <g transform="translate(234.474687 19.3575) scale(0.16 -0.16)">
     <defs>
      <path id="DejaVuSans-4d" d="M 628 4666 
L 1569 4666 
L 2759 1491 
L 3956 4666 
L 4897 4666 
L 4897 0 
L 4281 0 
L 4281 4097 
L 3078 897 
L 2444 897 
L 1241 4097 
L 1241 0 
L 628 0 
L 628 4666 
z
" transform="scale(0.015625)"/>
      <path id="DejaVuSans-76" d="M 191 3500 
L 800 3500 
L 1894 563 
L 2988 3500 
L 3597 3500 
L 2284 0 
L 1503 0 
L 191 3500 
z
" transform="scale(0.015625)"/>
      <path id="DejaVuSans-64" d="M 2906 2969 
L 2906 4863 
L 3481 4863 
L 3481 0 
L 2906 0 
L 2906 525 
Q 2725 213 2448 61 
Q 2172 -91 1784 -91 
Q 1150 -91 751 415 
Q 353 922 353 1747 
Q 353 2572 751 3078 
Q 1150 3584 1784 3584 
Q 2172 3584 2448 3432 
Q 2725 3281 2906 2969 
z
M 947 1747 
Q 947 1113 1208 752 
Q 1469 391 1925 391 
Q 2381 391 2643 752 
Q 2906 1113 2906 1747 
Q 2906 2381 2643 2742 
Q 2381 3103 1925 3103 
Q 1469 3103 1208 2742 
Q 947 2381 947 1747 
z
" transform="scale(0.015625)"/>
     </defs>
     <use xlink:href="#DejaVuSans-4d"/>
     <use xlink:href="#DejaVuSans-65" transform="translate(86.279297 0)"/>
     <use xlink:href="#DejaVuSans-61" transform="translate(147.802734 0)"/>
     <use xlink:href="#DejaVuSans-6e" transform="translate(209.082031 0)"/>
     <use xlink:href="#DejaVuSans-20" transform="translate(272.460938 0)"/>
     <use xlink:href="#DejaVuSans-68" transform="translate(304.248047 0)"/>
     <use xlink:href="#DejaVuSans-65" transform="translate(367.626953 0)"/>
     <use xlink:href="#DejaVuSans-69" transform="translate(429.150391 0)"/>
     <use xlink:href="#DejaVuSans-67" transform="translate(456.933594 0)"/>
     <use xlink:href="#DejaVuSans-68" transform="translate(520.410156 0)"/>
     <use xlink:href="#DejaVuSans-74" transform="translate(583.789062 0)"/>
     <use xlink:href="#DejaVuSans-20" transform="translate(622.998047 0)"/>
     <use xlink:href="#DejaVuSans-6f" transform="translate(654.785156 0)"/>
     <use xlink:href="#DejaVuSans-76" transform="translate(715.966797 0)"/>
     <use xlink:href="#DejaVuSans-65" transform="translate(775.146484 0)"/>
     <use xlink:href="#DejaVuSans-72" transform="translate(836.669922 0)"/>
     <use xlink:href="#DejaVuSans-20" transform="translate(877.783203 0)"/>
     <use xlink:href="#DejaVuSans-64" transform="translate(909.570312 0)"/>
     <use xlink:href="#DejaVuSans-69" transform="translate(973.046875 0)"/>
     <use xlink:href="#DejaVuSans-73" transform="translate(1000.830078 0)"/>
     <use xlink:href="#DejaVuSans-74" transform="translate(1052.929688 0)"/>
     <use xlink:href="#DejaVuSans-61" transform="translate(1092.138672 0)"/>
     <use xlink:href="#DejaVuSans-6e" transform="translate(1153.417969 0)"/>
     <use xlink:href="#DejaVuSans-63" transform="translate(1216.796875 0)"/>
     <use xlink:href="#DejaVuSans-65" transform="translate(1271.777344 0)"/>
    </g>
   </g>
   <g id="legend_1">
    <g id="patch_7">
     <path d="M 468.950312 70.185 
L 616.589687 70.185 
Q 618.989687 70.185 618.989687 67.785 
L 618.989687 33.7575 
Q 618.989687 31.3575 616.589687 31.3575 
L 468.950312 31.3575 
Q 466.550312 31.3575 466.550312 33.7575 
L 466.550312 67.785 
Q 466.550312 70.185 468.950312 70.185 
z
" style="fill: #ffffff; opacity: 0.8; stroke: #cccccc; stroke-linejoin: miter"/>
    </g>
    <g id="line2d_25">
     <path d="M 471.350312 41.075625 
L 483.350312 41.075625 
L 495.350312 41.075625 
" style="fill: none; stroke-dasharray: 12.21,5.28; stroke-dashoffset: 0; stroke: #6bbf5c; stroke-width: 3.3"/>
    </g>
    <g id="text_26">
     <!-- 50 μM @ 30-40 us -->
     <g transform="translate(504.950312 45.275625) scale(0.12 -0.12)">
      <defs>
       <path id="DejaVuSans-3bc" d="M 544 -1331 
L 544 3500 
L 1119 3500 
L 1119 1325 
Q 1119 872 1334 640 
Q 1550 409 1972 409 
Q 2434 409 2667 671 
Q 2900 934 2900 1459 
L 2900 3500 
L 3475 3500 
L 3475 806 
Q 3475 619 3529 530 
Q 3584 441 3700 441 
Q 3728 441 3778 458 
Q 3828 475 3916 513 
L 3916 50 
Q 3788 -22 3673 -56 
Q 3559 -91 3450 -91 
Q 3234 -91 3106 31 
Q 2978 153 2931 403 
Q 2775 156 2548 32 
Q 2322 -91 2016 -91 
Q 1697 -91 1473 31 
Q 1250 153 1119 397 
L 1119 -1331 
L 544 -1331 
z
" transform="scale(0.015625)"/>
       <path id="DejaVuSans-40" d="M 2381 1678 
Q 2381 1231 2603 976 
Q 2825 722 3213 722 
Q 3597 722 3817 978 
Q 4038 1234 4038 1678 
Q 4038 2116 3813 2373 
Q 3588 2631 3206 2631 
Q 2828 2631 2604 2375 
Q 2381 2119 2381 1678 
z
M 4084 744 
Q 3897 503 3655 389 
Q 3413 275 3091 275 
Q 2553 275 2217 664 
Q 1881 1053 1881 1678 
Q 1881 2303 2218 2693 
Q 2556 3084 3091 3084 
Q 3413 3084 3656 2967 
Q 3900 2850 4084 2613 
L 4084 3022 
L 4531 3022 
L 4531 722 
Q 4988 791 5245 1139 
Q 5503 1488 5503 2041 
Q 5503 2375 5404 2669 
Q 5306 2963 5106 3213 
Q 4781 3622 4314 3839 
Q 3847 4056 3297 4056 
Q 2913 4056 2559 3954 
Q 2206 3853 1906 3653 
Q 1416 3334 1139 2817 
Q 863 2300 863 1697 
Q 863 1200 1042 765 
Q 1222 331 1563 0 
Q 1891 -325 2322 -495 
Q 2753 -666 3244 -666 
Q 3647 -666 4036 -530 
Q 4425 -394 4750 -141 
L 5031 -488 
Q 4641 -791 4180 -952 
Q 3719 -1113 3244 -1113 
Q 2666 -1113 2153 -908 
Q 1641 -703 1241 -313 
Q 841 78 631 592 
Q 422 1106 422 1697 
Q 422 2266 634 2781 
Q 847 3297 1241 3688 
Q 1644 4084 2172 4295 
Q 2700 4506 3291 4506 
Q 3953 4506 4520 4234 
Q 5088 3963 5472 3463 
Q 5706 3156 5829 2797 
Q 5953 2438 5953 2053 
Q 5953 1231 5456 756 
Q 4959 281 4084 263 
L 4084 744 
z
" transform="scale(0.015625)"/>
       <path id="DejaVuSans-2d" d="M 313 2009 
L 1997 2009 
L 1997 1497 
L 313 1497 
L 313 2009 
z
" transform="scale(0.015625)"/>
       <path id="DejaVuSans-75" d="M 544 1381 
L 544 3500 
L 1119 3500 
L 1119 1403 
Q 1119 906 1312 657 
Q 1506 409 1894 409 
Q 2359 409 2629 706 
Q 2900 1003 2900 1516 
L 2900 3500 
L 3475 3500 
L 3475 0 
L 2900 0 
L 2900 538 
Q 2691 219 2414 64 
Q 2138 -91 1772 -91 
Q 1169 -91 856 284 
Q 544 659 544 1381 
z
M 1991 3584 
L 1991 3584 
z
" transform="scale(0.015625)"/>
      </defs>
      <use xlink:href="#DejaVuSans-35"/>
      <use xlink:href="#DejaVuSans-30" transform="translate(63.623047 0)"/>
      <use xlink:href="#DejaVuSans-20" transform="translate(127.246094 0)"/>
      <use xlink:href="#DejaVuSans-3bc" transform="translate(159.033203 0)"/>
      <use xlink:href="#DejaVuSans-4d" transform="translate(222.65625 0)"/>
      <use xlink:href="#DejaVuSans-20" transform="translate(308.935547 0)"/>
      <use xlink:href="#DejaVuSans-40" transform="translate(340.722656 0)"/>
      <use xlink:href="#DejaVuSans-20" transform="translate(440.722656 0)"/>
      <use xlink:href="#DejaVuSans-33" transform="translate(472.509766 0)"/>
      <use xlink:href="#DejaVuSans-30" transform="translate(536.132812 0)"/>
      <use xlink:href="#DejaVuSans-2d" transform="translate(599.755859 0)"/>
      <use xlink:href="#DejaVuSans-34" transform="translate(635.839844 0)"/>
      <use xlink:href="#DejaVuSans-30" transform="translate(699.462891 0)"/>
      <use xlink:href="#DejaVuSans-20" transform="translate(763.085938 0)"/>
      <use xlink:href="#DejaVuSans-75" transform="translate(794.873047 0)"/>
      <use xlink:href="#DejaVuSans-73" transform="translate(858.251953 0)"/>
     </g>
    </g>
    <g id="line2d_26">
     <path d="M 471.350312 58.689375 
L 483.350312 58.689375 
L 495.350312 58.689375 
" style="fill: none; stroke-dasharray: 12.21,5.28; stroke-dashoffset: 0; stroke: #7bd0dc; stroke-width: 3.3"/>
    </g>
    <g id="text_27">
     <!-- 0 μM @ 30-40 us -->
     <g transform="translate(504.950312 62.889375) scale(0.12 -0.12)">
      <use xlink:href="#DejaVuSans-30"/>
      <use xlink:href="#DejaVuSans-20" transform="translate(63.623047 0)"/>
      <use xlink:href="#DejaVuSans-3bc" transform="translate(95.410156 0)"/>
      <use xlink:href="#DejaVuSans-4d" transform="translate(159.033203 0)"/>
      <use xlink:href="#DejaVuSans-20" transform="translate(245.3125 0)"/>
      <use xlink:href="#DejaVuSans-40" transform="translate(277.099609 0)"/>
      <use xlink:href="#DejaVuSans-20" transform="translate(377.099609 0)"/>
      <use xlink:href="#DejaVuSans-33" transform="translate(408.886719 0)"/>
      <use xlink:href="#DejaVuSans-30" transform="translate(472.509766 0)"/>
      <use xlink:href="#DejaVuSans-2d" transform="translate(536.132812 0)"/>
      <use xlink:href="#DejaVuSans-34" transform="translate(572.216797 0)"/>
      <use xlink:href="#DejaVuSans-30" transform="translate(635.839844 0)"/>
      <use xlink:href="#DejaVuSans-20" transform="translate(699.462891 0)"/>
      <use xlink:href="#DejaVuSans-75" transform="translate(731.25 0)"/>
      <use xlink:href="#DejaVuSans-73" transform="translate(794.628906 0)"/>
     </g>
    </g>
   </g>
  </g>
 </g>
 <defs>
  <clipPath id="p86c5763763">
   <rect x="57.289687" y="25.3575" width="567.7" height="243.3"/>
  </clipPath>
 </defs>
</svg>
